HIERARCHY
ROOT Pelvis
{
	OFFSET 0.000000 0.000000 0.000000
	CHANNELS 6 Xposition Yposition Zposition Zrotation Yrotation Xrotation 
	JOINT Left_hip
	{
		OFFSET 0.068973 -0.091024 -0.007589
		CHANNELS 3 Zrotation Yrotation Xrotation
		JOINT Left_knee
		{
			OFFSET 0.036482 -0.391037 -0.003979
			CHANNELS 3 Zrotation Yrotation Xrotation
			JOINT Left_ankle
			{
				OFFSET -0.012239 -0.415469 -0.043440
				CHANNELS 3 Zrotation Yrotation Xrotation
				JOINT Left_foot
				{
					OFFSET 0.023806 -0.058558 0.118702
					CHANNELS 3 Zrotation Yrotation Xrotation
					End Site
					{
						OFFSET 0.000000 0.000000 0.000000
					}
				}
			}
		}
	}
	JOINT Right_hip
	{
		OFFSET -0.066552 -0.090468 -0.003847
		CHANNELS 3 Zrotation Yrotation Xrotation
		JOINT Right_knee
		{
			OFFSET -0.042435 -0.398340 -0.006400
			CHANNELS 3 Zrotation Yrotation Xrotation
			JOINT Right_ankle
			{
				OFFSET 0.014931 -0.415421 -0.041327
				CHANNELS 3 Zrotation Yrotation Xrotation
				JOINT Right_foot
				{
					OFFSET -0.021472 -0.049410 0.121889
					CHANNELS 3 Zrotation Yrotation Xrotation
					End Site
					{
						OFFSET 0.000000 0.000000 0.000000
					}
				}
			}
		}
	}
	JOINT Spine1
	{
		OFFSET -0.002904 0.105700 -0.022855
		CHANNELS 3 Zrotation Yrotation Xrotation
		JOINT Spine2
		{
			OFFSET 0.004179 0.132554 -0.002501
			CHANNELS 3 Zrotation Yrotation Xrotation
			JOINT Spine3
			{
				OFFSET 0.001987 0.049603 0.025988
				CHANNELS 3 Zrotation Yrotation Xrotation
				JOINT Neck
				{
					OFFSET -0.003935 0.211336 -0.045638
					CHANNELS 3 Zrotation Yrotation Xrotation
					JOINT Head
					{
						OFFSET 0.003906 0.065991 0.051018
						CHANNELS 3 Zrotation Yrotation Xrotation
						End Site
						{
							OFFSET 0.000000 0.000000 0.000000
						}
					}
				}
				JOINT Left_collar
				{
					OFFSET 0.072882 0.117751 -0.036270
					CHANNELS 3 Zrotation Yrotation Xrotation
					JOINT Left_shoulder
					{
						OFFSET 0.082118 0.032630 -0.005771
						CHANNELS 3 Zrotation Yrotation Xrotation
						JOINT Left_elbow
						{
							OFFSET 0.263305 -0.015144 -0.028095
							CHANNELS 3 Zrotation Yrotation Xrotation
							JOINT Left_wrist
							{
								OFFSET 0.250741 0.010115 -0.000759
								CHANNELS 3 Zrotation Yrotation Xrotation
								JOINT Left_palm
								{
									OFFSET 0.080683 -0.009989 -0.013613
									CHANNELS 3 Zrotation Yrotation Xrotation
									End Site
									{
										OFFSET 0.000000 0.000000 0.000000
									}
								}
							}
						}
					}
				}
				JOINT Right_collar
				{
					OFFSET -0.074811 0.116132 -0.040385
					CHANNELS 3 Zrotation Yrotation Xrotation
					JOINT Right_shoulder
					{
						OFFSET -0.085089 0.032943 -0.007484
						CHANNELS 3 Zrotation Yrotation Xrotation
						JOINT Right_elbow
						{
							OFFSET -0.254763 -0.014219 -0.020321
							CHANNELS 3 Zrotation Yrotation Xrotation
							JOINT Right_wrist
							{
								OFFSET -0.256597 0.009233 -0.005063
								CHANNELS 3 Zrotation Yrotation Xrotation
								JOINT Right_palm
								{
									OFFSET -0.080528 -0.007219 -0.010379
									CHANNELS 3 Zrotation Yrotation Xrotation
									End Site
									{
										OFFSET 0.000000 0.000000 0.000000
									}
								}
							}
						}
					}
				}
			}
		}
	}
}
MOTION
Frames: 5
Frame Time: 0.100000
0.000000 0.000000 0.000000 175.311068 17.803280 -20.764150 8.978668 7.516199 18.149329 -2.942769 4.472689 -7.815585 -4.555832 8.144784 1.103724 3.877262 7.256355 -2.578128 -5.334993 -8.465459 15.925447 4.093383 -10.924209 -4.288140 4.672487 -6.409284 0.760566 -1.458459 -4.591545 3.770439 0.891204 0.876261 -0.969253 -0.017424 -2.827797 9.805589 1.037615 -1.911614 -0.373890 0.822412 11.060069 8.413962 -2.273181 0.263434 -7.502675 -25.713513 -7.660342 10.679893 -51.161841 -3.036160 8.386580 3.106673 -33.756460 15.990241 -9.431708 -11.300247 7.563521 -9.944475 -1.807555 -23.022751 23.365094 12.658912 9.864594 52.014590 5.033439 11.613017 -9.749201 32.238447 5.023161 3.954446 7.767617 2.421276 9.475712 2.809567 -8.930442 
0.005733 -0.000645 0.006002 175.591550 17.138369 -20.615374 9.290111 7.656907 18.321704 -2.794062 4.754796 -7.587313 -4.619522 8.400954 1.246058 3.805881 7.252270 -2.654841 -5.063115 -8.370762 16.235624 4.261297 -10.505528 -4.660351 4.340906 -6.309632 0.428773 -1.121008 -4.579944 4.051568 1.184334 0.938568 -1.321585 0.022728 -2.732421 9.917458 0.899209 -1.753341 -0.447527 0.979174 10.535320 8.941171 -2.305748 -0.101048 -6.872915 -25.950974 -7.155024 10.529524 -51.050751 -2.796114 8.294717 3.794390 -31.731863 14.938659 -9.547896 -10.934206 7.738590 -10.002122 -1.941355 -23.025506 23.621704 12.476841 9.767810 52.199093 5.016521 11.855497 -9.445078 31.474188 5.101422 3.928631 7.664234 2.520387 9.627958 2.880199 -8.843020 
0.012197 -0.001156 0.009810 175.771424 16.841396 -20.461542 9.601364 7.495995 18.450104 -2.700056 4.402795 -7.668806 -4.772014 8.872453 1.505427 3.819941 6.921674 -2.736013 -4.772831 -8.194537 15.771219 4.310138 -10.297527 -3.854131 3.771466 -6.366564 -0.084403 -0.329430 -4.625789 4.240685 1.152488 0.916505 -1.360264 0.163665 -2.502575 10.507142 0.941436 -1.584019 -0.417817 0.956507 9.944585 9.187961 -2.209080 -0.541237 -6.646664 -25.977913 -6.300690 10.444738 -50.940279 -2.374016 8.279061 4.224803 -29.189084 14.129731 -9.832878 -11.082331 8.090596 -9.577035 -1.780285 -22.677683 24.202009 12.119248 10.080135 52.100033 4.301300 12.012281 -8.432157 27.713654 5.911178 4.182496 7.441895 3.270208 9.289179 2.809848 -8.403254 
0.020491 -0.001406 0.011874 175.698557 17.790956 -20.158716 9.952095 7.421105 18.261817 -2.545178 3.606672 -8.452230 -5.003066 8.995931 2.205488 3.616538 6.538180 -2.740129 -4.355571 -8.197969 14.993738 4.366482 -10.557036 -2.898296 3.123924 -6.828338 -0.642740 0.390297 -4.705110 4.474511 0.834327 0.819775 -0.989769 0.296612 -2.435112 11.067550 1.064054 -1.566409 -0.370175 0.843777 9.017059 8.901181 -1.646172 -1.337066 -7.298795 -25.888189 -5.782846 10.381826 -50.534874 -2.090669 8.441990 4.403330 -26.061882 13.265056 -10.291669 -11.164366 8.407957 -9.295600 -1.754092 -22.332347 24.680063 11.511398 10.276392 52.318274 2.784145 11.662042 -8.281060 23.087792 5.345376 4.581528 7.165427 2.911350 9.116280 2.831542 -7.869999 
0.032547 -0.001164 0.012000 175.584438 19.384979 -19.772500 10.279701 7.372074 17.404406 -2.275198 2.844828 -9.006519 -5.246270 8.963481 3.114001 3.329647 6.214715 -2.702035 -3.732387 -8.435681 14.292205 4.472594 -11.015470 -2.596075 2.368283 -7.448346 -1.140102 1.008818 -4.855078 4.823761 0.497196 0.808140 -0.010598 0.158195 -2.523260 11.476776 1.140467 -1.611077 -0.337659 0.525026 8.169736 8.210657 -0.800059 -2.000124 -8.818360 -25.692010 -5.872186 10.368948 -49.854775 -1.923238 8.279522 4.972456 -23.275853 11.621501 -10.637138 -11.174310 8.250148 -9.095904 -1.737003 -21.890884 24.777481 11.509987 10.671405 52.786981 1.161012 11.431429 -7.866836 19.598147 5.130106 5.109097 7.065171 2.094280 8.951301 2.849111 -7.232799 
